<?xml version="1.0" encoding="UTF-8"?>
<!DOCTYPE svg PUBLIC "-//W3C//DTD SVG 1.1//EN" "http://www.w3.org/Graphics/SVG/1.1/DTD/svg11.dtd">
<svg xmlns="http://www.w3.org/2000/svg" version="1.1" width="512px" height="512px" style="shape-rendering:geometricPrecision; text-rendering:geometricPrecision; image-rendering:optimizeQuality; fill-rule:evenodd; clip-rule:evenodd" xmlns:xlink="http://www.w3.org/1999/xlink">
<g><path style="opacity:0.998" fill="#98dcde" d="M 314.5,48.5 C 342.526,86.8808 364.026,128.881 379,174.5C 380.873,182.868 382.873,191.201 385,199.5C 385.789,201.712 385.622,203.712 384.5,205.5C 366.843,203.217 352.343,208.884 341,222.5C 322.386,248.294 315.719,276.961 321,308.5C 322.834,317.983 328.001,324.816 336.5,329C 339.063,330.079 341.729,330.579 344.5,330.5C 346.292,331.309 348.292,331.809 350.5,332C 341.395,342.111 331.395,351.111 320.5,359C 319.552,359.483 318.552,359.649 317.5,359.5C 301.046,351.294 283.713,345.794 265.5,343C 218.553,339.46 186.886,359.626 170.5,403.5C 144.023,403.252 120.357,395.085 99.5,379C 94.2088,373.225 89.2088,367.391 84.5,361.5C 66.5397,319.771 61.2064,276.438 68.5,231.5C 97.2918,245.399 124.625,242.899 150.5,224C 175.928,200.123 183.094,171.623 172,138.5C 162.492,116.683 146.325,102.683 123.5,96.5C 144.188,59.6593 174.854,35.1593 215.5,23C 232.922,18.229 250.255,18.5623 267.5,24C 284.677,29.5859 300.344,37.7525 314.5,48.5 Z"/></g>
<g><path style="opacity:0.997" fill="#7fd6d4" d="M 314.5,48.5 C 372.771,90.6608 413.271,145.994 436,214.5C 458.697,298.196 439.863,370.863 379.5,432.5C 377.182,418.197 371.348,405.531 362,394.5C 348.822,380.523 333.989,368.856 317.5,359.5C 318.552,359.649 319.552,359.483 320.5,359C 331.395,351.111 341.395,342.111 350.5,332C 348.292,331.809 346.292,331.309 344.5,330.5C 376.035,329.649 402.869,317.982 425,295.5C 443.934,274.099 444.268,252.432 426,230.5C 414.656,217.917 400.823,209.583 384.5,205.5C 385.622,203.712 385.789,201.712 385,199.5C 382.873,191.201 380.873,182.868 379,174.5C 364.026,128.881 342.526,86.8808 314.5,48.5 Z"/></g>
<g><path style="opacity:1" fill="#24beaa" d="M 207.5,60.5 C 229.126,59.2154 242.959,68.882 249,89.5C 249.97,110.4 240.47,123.9 220.5,130C 199.14,132.631 184.973,123.798 178,103.5C 176.427,81.3064 186.26,66.973 207.5,60.5 Z"/></g>
<g><path style="opacity:1" fill="#24beaa" d="M 123.5,96.5 C 146.325,102.683 162.492,116.683 172,138.5C 183.094,171.623 175.928,200.123 150.5,224C 124.625,242.899 97.2918,245.399 68.5,231.5C 77.287,182.441 95.6203,137.441 123.5,96.5 Z"/></g>
<g><path style="opacity:1" fill="#23beaa" d="M 384.5,205.5 C 400.823,209.583 414.656,217.917 426,230.5C 444.268,252.432 443.934,274.099 425,295.5C 402.869,317.982 376.035,329.649 344.5,330.5C 341.729,330.579 339.063,330.079 336.5,329C 328.001,324.816 322.834,317.983 321,308.5C 315.719,276.961 322.386,248.294 341,222.5C 352.343,208.884 366.843,203.217 384.5,205.5 Z"/></g>
<g><path style="opacity:1" fill="#23beaa" d="M 317.5,359.5 C 333.989,368.856 348.822,380.523 362,394.5C 371.348,405.531 377.182,418.197 379.5,432.5C 327.051,486.193 265.384,500.36 194.5,475C 186.698,471.934 179.365,468.1 172.5,463.5C 164.096,443.722 163.43,423.722 170.5,403.5C 186.886,359.626 218.553,339.46 265.5,343C 283.713,345.794 301.046,351.294 317.5,359.5 Z"/></g>
<g><path style="opacity:0.993" fill="#7fd6d4" d="M 84.5,361.5 C 89.2088,367.391 94.2088,373.225 99.5,379C 120.357,395.085 144.023,403.252 170.5,403.5C 163.43,423.722 164.096,443.722 172.5,463.5C 132.935,438.396 103.601,404.396 84.5,361.5 Z"/></g>
</svg>
