<?xml version="1.0" standalone="no"?>
<!DOCTYPE svg PUBLIC "-//W3C//DTD SVG 20010904//EN"
 "http://www.w3.org/TR/2001/REC-SVG-20010904/DTD/svg10.dtd">
<svg version="1.0" xmlns="http://www.w3.org/2000/svg"
 width="512.000000pt" height="512.000000pt" viewBox="0 0 512.000000 512.000000"
 preserveAspectRatio="xMidYMid meet">

<g transform="translate(0.000000,512.000000) scale(0.100000,-0.100000)"
fill="#000000" stroke="none">
<path d="M2475 3822 c-22 -11 -63 -43 -90 -73 -156 -168 -1493 -1706 -1509
-1737 -40 -75 -19 -189 46 -249 59 -56 162 -69 238 -30 36 18 174 169 719 792
371 424 677 771 680 772 3 1 310 -346 681 -770 546 -625 684 -776 720 -794 76
-39 179 -26 238 30 66 62 86 175 44 252 -31 57 -1541 1776 -1580 1798 -48 28
-138 32 -187 9z"/>
</g>
</svg>
